<?xml version="1.0" encoding="UTF-8"?><svg id="CIRCLE_OUTLINE_BLACK" xmlns="http://www.w3.org/2000/svg" viewBox="0 0 512 512"><g id="GnBIHM"><path d="M242.95292.62675c189.76452-9.49832,323.85947,184.64104,246.99325,359.27564-79.75504,181.1978-329.63299,205.81068-443.37563,43.36629C-68.87684,238.38963,42.99324,10.63537,242.95292.62675ZM286.00786,73.36101h-60.07099v20.02404h-40.04732v20.73919h120.14197v19.3089h60.78612v-19.3089h-19.6661l-1.0727-1.07272v-19.66647h-60.07099v-20.02404ZM225.93688,133.43315h-60.07099v20.02404h-19.6661l-1.0727,1.07272v99.04751h-19.30853v100.83537h-20.73879v40.04809h20.73879v20.02404h40.04732v-20.02404h20.02366v-20.02404h20.02366v-100.12022h-20.02366v-60.07213h40.04732v20.02404h40.04732l.71513-40.76323h39.33219v-40.04809h-80.09465v-20.02404ZM386.84131,193.50528c-.01969-6.4251.01448-12.88381,0-19.3089h-40.76246v40.04809h20.73879v-19.66647c.62763-1.02038,1.42528-.9869,2.46655-1.10913,5.02793-.59019,12.22511.05273,17.55712.03641.0416,13.57571-.03092,27.18746,0,40.76323h20.02366v-40.76323c-6.66329.01502-13.36037-.0204-20.02366,0ZM366.81764,334.38874h-20.73879v40.04809h-19.30853v-20.02404h-40.76246v60.07213h20.02366v-20.02404h20.02366l.71513,20.02404h40.04732v-80.09618Z" fill="#eb642b"/><polygon points="225.93688 133.43315 225.93688 153.45719 306.03152 153.45719 306.03152 193.50528 266.69933 193.50528 265.9842 234.26851 225.93688 234.26851 225.93688 214.24447 185.88955 214.24447 185.88955 274.3166 205.91321 274.3166 205.91321 374.43683 185.88955 374.43683 185.88955 394.46087 165.86589 394.46087 165.86589 414.48492 125.81856 414.48492 125.81856 394.46087 105.07977 394.46087 105.07977 354.41278 125.81856 354.41278 125.81856 253.57741 145.12709 253.57741 145.12709 154.52991 146.19979 153.45719 165.86589 153.45719 165.86589 133.43315 225.93688 133.43315" fill="#010100"/><polygon points="286.00786 73.36101 286.00786 93.38506 346.07885 93.38506 346.07885 113.05153 347.15155 114.12425 366.81764 114.12425 366.81764 133.43315 306.03152 133.43315 306.03152 114.12425 185.88955 114.12425 185.88955 93.38506 225.93688 93.38506 225.93688 73.36101 286.00786 73.36101" fill="#030100"/><polygon points="366.81764 334.38874 366.81764 414.48492 326.77032 414.48492 326.05519 394.46087 306.03152 394.46087 306.03152 414.48492 286.00786 414.48492 286.00786 354.41278 326.77032 354.41278 326.77032 374.43683 346.07885 374.43683 346.07885 334.38874 366.81764 334.38874" fill="#030100"/><path d="M386.84131,193.50528c-5.332.01632-12.52919-.6266-17.55712-.03641-1.04126.12223-1.83892.08875-2.46655,1.10913v19.66647h-20.73879v-40.04809h40.76246c.01448,6.42509-.01969,12.8838,0,19.3089Z" fill="#030100"/><path d="M386.84131,193.50528c6.6633-.0204,13.36037.01502,20.02366,0v40.76323h-20.02366c-.03092-13.57577.0416-27.18753,0-40.76323Z" fill="#050201"/></g></svg>