<?xml version="1.0" encoding="UTF-8"?><svg id="CIRCLE_OUTLINE_BLACK" xmlns="http://www.w3.org/2000/svg" viewBox="0 0 512 512"><path d="m256.00012,7.26939h0c137.34698,0,248.73041,111.38345,248.73041,248.73041h0c0,137.34698-111.38343,248.73041-248.73041,248.73041h0c-137.34696,0-248.73041-111.38347-248.73041-248.73041h0C7.26971,118.65284,118.65316,7.26939,256.00012,7.26939Z" fill="#111" stroke-width="0"/><path d="m437.03798,74.96178C388.69774,26.62203,324.4039.00024,256.00024.00024S123.30226,26.62203,74.96202,74.96178C26.62228,123.3025,0,187.59586,0,256s26.62228,132.6975,74.96202,181.03822c48.34023,48.33975,112.63407,74.96154,181.03822,74.96154s132.6975-26.62179,181.03773-74.96154c48.33975-48.34071,74.96202-112.63407,74.96202-181.03822s-26.62228-132.6975-74.96202-181.03822Zm-4.98623,357.08972c-47.00852,47.00803-109.53123,72.89652-176.05151,72.89652s-129.04347-25.88848-176.05151-72.89652C32.94022,385.04347,7.05174,322.52027,7.05174,256S32.94022,126.95653,79.94873,79.94849C126.95677,32.94046,189.47997,7.05198,256.00024,7.05198s129.04299,25.88848,176.05151,72.89652c47.00803,47.00803,72.89652,109.53123,72.89652,176.05151s-25.88848,129.04347-72.89652,176.05151Z" fill="#fff" stroke-width="0"/><path d="m199.70432,136.4207h-5.53729l-3.55968,4.21888-91.62897,107.71348-6.59201,7.64674,6.59201,7.64674,91.76081,107.71347,3.55968,4.2189h182.59871v-80.42255h-23.73124v56.6913h-127.35768l76.20366-88.06928,6.72386-7.77857-6.72386-7.77857-76.20366-88.06928h127.35768v56.6913h23.73124v-80.42255h-177.19327v-.00003Zm.13185,30.05957l-76.20366,89.51953,76.20366,89.51951,77.39022-89.51951-77.39022-89.51953Z" fill="#fff" fill-rule="evenodd" stroke-width="0"/></svg>