<?xml version="1.0" encoding="UTF-8"?>
<svg id="logosandtypes_com" data-name="logosandtypes com" xmlns="http://www.w3.org/2000/svg" viewBox="0 0 150 150">
  <defs>
    <style>
      .cls-1 {
        fill: none;
      }
    </style>
  </defs>
  <g id="Layer_3" data-name="Layer 3">
    <g id="Layer_2" data-name="Layer 2">
      <path id="Layer_3-2" data-name="Layer 3-2" class="cls-1" d="M0,0H150V150H0V0Z"/>
    </g>
  </g>
  <g>
    <path d="M24.89,45.75c0-6.9-.4-13.63,.11-20.29,.54-7.09,6.16-12.03,13.32-12.28,24.08-.59,48.19-.24,72.27-.05,18.78,.56,14.33,19.36,14.7,32.62H24.89Z"/>
    <path d="M92.03,139.2V73.63h33.42c.39,15.66,.06,31.33,.12,47-.02,4.19,.04,8.43-2.52,12.14-2.72,3.94-6.39,6.29-11.19,6.4-6.51,.14-13.03,.03-19.82,.03Z"/>
    <path d="M58.35,138.96c0-21.91,0-43.64,0-65.57-11.18,0-22.22,0-33.42,0-.39,15.66-.06,31.33-.12,47,.02,4.19-.04,8.43,2.52,12.14,2.72,3.94,6.39,6.29,11.19,6.4,6.51,.14,13.03,.03,19.82,.03Z"/>
  </g>
</svg>